<?xml version="1.0" encoding="UTF-8"?>
<svg xmlns="http://www.w3.org/2000/svg" id="Camada_2" data-name="Camada 2" viewBox="0 0 317.72 317.72">
  <defs>
    <style>
      .cls-1 {
        fill: #212133;
      }

      .cls-2 {
        fill: #ff006f;
      }
    </style>
  </defs>
  <g id="Camada_1" data-name="Camada 1">
    <g>
      <rect class="cls-1" width="317.72" height="317.72" rx="63.69" ry="63.69"></rect>
      <path class="cls-2" d="M212.45,68.07H78.74v36.53h134.36v35.97h-107.83c-20.54,0-37.19,16.65-37.19,37.19v34.7c0,20.54,16.65,37.19,37.19,37.19h22.47c11.9,0,23.08-5.7,30.08-15.32l38.79-53.35c1.75-2.41,4.55-3.83,7.52-3.83h8.97v72.5h36.53V105.26c0-20.54-16.65-37.19-37.19-37.19ZM122.68,213.12h-18.06v-26.67c0-5.14,4.16-9.3,9.3-9.3h39.65l-23.36,32.13c-1.75,2.41-4.55,3.83-7.52,3.83Z"></path>
    </g>
  </g>
</svg>
